<?xml version="1.0" encoding="UTF-8" standalone="no"?>
<!DOCTYPE svg PUBLIC "-//W3C//DTD SVG 1.1//EN" "http://www.w3.org/Graphics/SVG/1.1/DTD/svg11.dtd">
<svg width="100%" height="100%" viewBox="0 0 256 256" version="1.1" xmlns="http://www.w3.org/2000/svg" xmlns:xlink="http://www.w3.org/1999/xlink" xml:space="preserve" xmlns:serif="http://www.serif.com/" style="fill-rule:evenodd;clip-rule:evenodd;stroke-linejoin:round;stroke-miterlimit:2;">
    <path id="path-1" d="M168.577,26.514l-0.975,23.452c-0.015,0.361 0.096,0.715 0.314,1.003c0.518,0.683 1.491,0.816 2.174,0.298l9.11,-6.91l7.695,6.061c0.288,0.227 0.647,0.345 1.014,0.332c0.857,-0.03 1.527,-0.749 1.497,-1.605l-0.834,-23.881l11.423,-0.713c5.735,-0.359 10.675,4 11.033,9.735c0.014,0.216 0.021,0.432 0.021,0.649l-0,186.131c-0,5.746 -4.659,10.404 -10.405,10.404c-0.155,0 -0.311,-0.003 -0.467,-0.01l-138.877,-6.238c-5.409,-0.243 -9.728,-4.593 -9.931,-10.004l-6.41,-170.813c-0.212,-5.641 4.114,-10.422 9.748,-10.774l113.87,-7.117Z" style="fill:url(#_Linear1);fill-rule:nonzero;"/>
    <path d="M140.91,84.359l-14.563,25.224l-14.564,-25.224l-48.497,-0l63.061,109.225l63.06,-109.225l-48.497,-0Z" style="fill:white;fill-rule:nonzero;"/>
    <path d="M140.91,84.359l-14.563,25.224l-14.564,-25.224l-23.273,-0l37.837,65.534l37.836,-65.534l-23.273,-0Z" style="fill:url(#_Linear2);fill-rule:nonzero;"/>
    <defs>
        <linearGradient id="_Linear1" x1="0" y1="0" x2="1" y2="0" gradientUnits="userSpaceOnUse" gradientTransform="matrix(573.043,344.505,-344.505,573.043,-20.9095,230.799)"><stop offset="0" style="stop-color:rgb(65,184,131);stop-opacity:1"/><stop offset="1" style="stop-color:rgb(0,177,169);stop-opacity:1"/></linearGradient>
        <linearGradient id="_Linear2" x1="0" y1="0" x2="1" y2="0" gradientUnits="userSpaceOnUse" gradientTransform="matrix(86.3934,110.261,-110.261,86.3934,103.014,117.126)"><stop offset="0" style="stop-color:rgb(52,73,94);stop-opacity:1"/><stop offset="1" style="stop-color:rgb(255,71,133);stop-opacity:1"/></linearGradient>
    </defs>
</svg>
